<svg width="225" height="248" viewBox="0 0 225 248" fill="none" xmlns="http://www.w3.org/2000/svg">
<path d="M209.211 46H15.7244C7.04004 46 0 53.04 0 61.7244V210.858C0 219.542 7.04004 226.582 15.7244 226.582H209.211C217.896 226.582 224.936 219.542 224.936 210.858V61.7244C224.936 53.04 217.896 46 209.211 46Z" fill="#F5EBDD"/>
<path d="M208.075 47.3896C212.195 47.3896 216.146 49.0246 219.059 51.935C221.972 54.8453 223.609 58.7926 223.609 62.9084V210.092C223.609 214.207 221.972 218.155 219.059 221.065C216.146 223.975 212.195 225.61 208.075 225.61H16.9254C12.8054 225.61 8.85422 223.975 5.94095 221.065C3.02769 218.155 1.39104 214.207 1.39104 210.092V62.9084C1.39104 58.7926 3.02769 54.8453 5.94095 51.935C8.85422 49.0246 12.8054 47.3896 16.9254 47.3896H208.075ZM208.075 46H16.9254C12.4379 46.0046 8.13556 47.7875 4.96243 50.9574C1.78929 54.1274 0.00460303 58.4254 0 62.9084V210.092C0.00460303 214.575 1.78929 218.873 4.96243 222.043C8.13556 225.213 12.4379 226.995 16.9254 227H208.075C212.562 226.995 216.864 225.213 220.038 222.043C223.211 218.873 224.995 214.575 225 210.092V62.9084C224.995 58.4254 223.211 54.1274 220.038 50.9574C216.864 47.7875 212.562 46.0046 208.075 46Z" fill="white"/>
<path d="M153.271 121.456C153.271 121.456 145.53 121.879 139.758 118.667C134.29 115.623 133.409 110.856 135.316 101.422C135.316 101.422 131.898 99.3928 132.24 97.364C132.462 96.0283 136.341 94.6589 136.341 94.6589C136.826 92.0823 137.441 88.1869 138.439 84.2036C140.936 84.6892 143.472 84.9473 146.016 84.9746C153.644 93.4652 161.972 93.9826 161.972 93.9826C163.178 92.1998 164.814 90.7424 166.733 89.7423L178.11 94.2294C178.218 94.5931 178.307 94.9622 178.376 95.3352C179.958 104.211 168.807 107.508 168.807 107.508C171.056 116.009 178.376 119.343 183.871 120.652L183.407 124.875H152.697L153.271 121.456Z" fill="#EAA58B"/>
<path d="M79.7161 188.784C53.0595 181.006 51.3508 118.789 51.3508 118.789L65.2566 101.084C65.2566 101.084 62.6285 88.3564 65.3625 85.9894C68.6639 83.1321 72.823 92.0759 77.3238 103.234C82.0537 114.958 90.8879 149.438 91.5714 151.805C91.5714 151.805 98.2014 148.721 106.058 145.137L107.172 148.762L117.309 182.572C106.195 187.073 90.4436 191.915 79.7161 188.784Z" fill="#EAA58B"/>
<path d="M168.807 107.508C168.807 107.508 179.958 104.211 178.376 95.3352C178.307 94.9623 178.218 94.5932 178.11 94.2295L186.397 97.4858C186.397 97.7191 186.359 97.9389 186.342 98.162L183.871 120.652C178.366 119.343 171.056 116.009 168.807 107.508Z" fill="#A15842"/>
<path d="M161.972 93.9828C161.972 93.9828 153.644 93.4655 146.016 84.9748C143.472 84.9475 140.936 84.6895 138.439 84.2039C138.863 82.5132 139.359 80.8056 139.946 79.1724L166.733 89.7426C164.814 90.7427 163.178 92.2 161.972 93.9828Z" fill="#A15842"/>
<path d="M178.11 94.2299L166.733 89.7428C171.432 87.3826 176.589 89.1037 178.11 94.2299Z" fill="#30242A"/>
<path d="M166.733 89.7425L139.946 79.1723C140.879 76.572 142.041 74.1679 143.518 72.3419C149.239 65.2647 163.284 60.1283 175.683 69.0924C187.621 77.7251 186.893 91.4434 186.397 97.4961L178.11 94.2263C176.589 89.1035 171.432 87.3823 166.733 89.7425Z" fill="#30242A"/>
<path d="M134.8 139.754L135.613 132.795C145.025 130.079 151.826 129.948 151.826 129.948L152.68 124.875H183.407L182.925 129.271C185.97 129.262 189.009 129.519 192.009 130.039L187.709 139.754H134.8Z" fill="#4756DF"/>
<path d="M178.766 160.042H132.424L133.61 149.897H183.243L178.766 160.042Z" fill="#4756DF"/>
<path d="M174.285 170.186L169.808 180.33H130.124L130.531 176.489L130.497 176.506L131.238 170.186H174.285Z" fill="#4756DF"/>
<path d="M162.314 195.763C162.314 195.763 140.042 197.231 128.139 199.144L129.055 190.475H164.73L162.314 195.763Z" fill="#4756DF"/>
<path d="M133.61 149.898L134.8 139.753H187.72L183.243 149.898H133.61Z" fill="#FFB494"/>
<path d="M178.766 160.042L174.285 170.186H131.239L132.424 160.042H178.766Z" fill="#FFB494"/>
<path d="M168.807 181.561L164.73 190.474H129.055L130.124 180.33H169.388L168.807 181.561Z" fill="#FFB494"/>
<path d="M106.082 145.122C109.965 143.351 114.144 141.444 117.968 139.753C121.321 138.258 124.403 136.906 126.772 135.912C129.654 134.699 132.606 133.658 135.613 132.794L134.8 139.753L133.61 149.897L132.424 160.041L131.239 170.185L130.497 176.505C130.155 176.681 127.144 178.287 122.582 180.33C121.065 181.006 119.376 181.736 117.562 182.473L117.316 182.571L107.172 148.757L106.058 145.133L106.082 145.122Z" fill="#4756DF"/>
<path d="M164.73 190.474L168.807 181.561L169.388 180.33H169.809L168.913 182.359L202.217 194.343C196.605 205.4 190.255 214.888 185.553 219.432C169.149 235.325 126.191 225.424 126.191 225.424C126.191 225.424 121.304 229.238 114.811 230.591C103.191 253.246 96.8003 245.374 96.8003 245.374C96.8003 245.374 92.6992 249.77 89.6235 245.036C83.472 245.374 83.8137 241.655 89.2817 228.806C83.1302 236.245 77.0061 236.363 76.8762 234.311C76.5344 228.9 91.9132 210.979 106.028 205.136C114.517 201.623 128.139 199.144 128.139 199.144C140.042 197.247 162.314 195.763 162.314 195.763L164.73 190.474Z" fill="#EAA58B"/>
<path d="M192.009 130.039C198.348 131.114 206.478 133.667 211.174 139.754C213.262 142.459 214.674 145.84 214.933 150.114C215.709 162.426 209.612 179.749 202.206 194.343L168.913 182.359L192.009 130.039Z" fill="#4756DF"/>
<path d="M158.999 125.335L158.315 131.3" stroke="#30242A" stroke-width="4" stroke-linecap="round" stroke-linejoin="round"/>
<path d="M164.809 125.335L164.125 131.3" stroke="#30242A" stroke-width="4" stroke-linecap="round" stroke-linejoin="round"/>
<path d="M153.251 122.17C155.483 122.005 157.665 121.432 159.686 120.479" stroke="#A15842" stroke-width="4" stroke-miterlimit="10" stroke-linecap="round"/>
<path d="M88.5436 228.637C89.8593 225.749 91.3665 222.618 92.7232 220.244" stroke="#A15842" stroke-width="4" stroke-miterlimit="10" stroke-linecap="round"/>
<path d="M99.1413 223.612C94.8728 231.031 91.5749 239.383 89.5723 245.019" stroke="#A15842" stroke-width="4" stroke-miterlimit="10" stroke-linecap="round"/>
<path d="M106.714 228.007C103.639 233.59 100.143 240.326 97.6205 245.344" stroke="#A15842" stroke-width="4" stroke-miterlimit="10" stroke-linecap="round"/>
<path d="M130.087 176.364L131.32 163.762" stroke="#30242A" stroke-width="4" stroke-linecap="round" stroke-linejoin="round"/>
<path d="M92.3438 151.669L94.6472 160.596" stroke="#A15842" stroke-width="4" stroke-miterlimit="10" stroke-linecap="round"/>
<path d="M183.065 128.595H178.824" stroke="#30242A" stroke-width="4" stroke-linecap="round" stroke-linejoin="round"/>
<path d="M151.098 129.981L150.455 133.788" stroke="#30242A" stroke-width="4" stroke-linecap="round" stroke-linejoin="round"/>
<path d="M143.757 71.541L186.817 87.7717" stroke="#4756DF" stroke-width="4" stroke-miterlimit="10" stroke-linecap="round"/>
<path d="M162.895 194.961L172.225 194.41" stroke="#A15842" stroke-width="4" stroke-miterlimit="10" stroke-linecap="round"/>
<path d="M162.553 195.299L175.406 167.142" stroke="#30242A" stroke-width="4" stroke-linecap="round" stroke-linejoin="round"/>
<path d="M64.0844 98.1289C64.8705 101.196 65.9709 105.23 67.0713 108.307C67.0713 108.307 61.2616 118.451 67.4131 130.286" stroke="#A15842" stroke-width="4" stroke-miterlimit="10" stroke-linecap="round"/>
<path d="M50.3563 198.17H65.1848C65.2864 198.17 65.3837 198.131 65.4555 198.059C65.5273 197.988 65.5676 197.892 65.5676 197.792V187.039C65.5676 186.938 65.5273 186.842 65.4555 186.771C65.3837 186.7 65.2864 186.66 65.1848 186.66H50.3563C48.8154 186.66 47.3377 187.266 46.2481 188.344C45.1586 189.422 44.5465 190.884 44.5465 192.409C44.5447 193.165 44.6937 193.913 44.9848 194.612C45.276 195.311 45.7036 195.947 46.2433 196.482C46.783 197.017 47.424 197.442 48.1298 197.732C48.8356 198.021 49.5922 198.17 50.3563 198.17V198.17Z" stroke="#A15842" stroke-width="8" stroke-miterlimit="10"/>
<path d="M69.6139 184.908C81.8521 184.908 87.5114 175.258 87.5114 175.258L79.2821 210.671H59.9458L51.7199 175.258C53.6298 178.237 56.2745 180.685 59.405 182.374C62.5354 184.062 66.0487 184.934 69.6139 184.908Z" fill="#FF7235"/>
<path d="M69.6139 184.908C66.0487 184.934 62.5354 184.062 59.405 182.374C56.2745 180.685 53.6298 178.237 51.7199 175.258H87.5114C87.5114 175.258 81.8521 184.908 69.6139 184.908Z" fill="#A15842"/>
<path d="M166.521 100.192L171.647 96.4722" stroke="#A15842" stroke-width="4" stroke-miterlimit="10" stroke-linecap="round"/>
<path d="M142.366 96.0185C141.583 96.0185 140.948 95.3902 140.948 94.6152C140.948 93.8402 141.583 93.2119 142.366 93.2119C143.149 93.2119 143.784 93.8402 143.784 94.6152C143.784 95.3902 143.149 96.0185 142.366 96.0185Z" fill="#30242A"/>
<path d="M195.727 100.618L130.606 76.187" stroke="#30242A" stroke-width="4" stroke-linecap="round" stroke-linejoin="round"/>
<path d="M143.73 104.171C143.388 104.847 141.484 106.403 139.646 105.344" stroke="#A15842" stroke-width="4" stroke-miterlimit="10" stroke-linecap="round"/>
<path d="M52.4512 130.644C53.2782 129.819 53.9139 128.425 53.743 126.228C53.743 126.228 56.8188 127.918 58.8693 126.228C61.5623 124.006 60.578 120.817 60.578 120.817C60.578 120.817 63.6538 121.832 65.0208 119.465C66.504 116.898 64.6791 113.378 64.6791 113.378C64.6791 113.378 67.1362 113.716 67.7548 111.349C68.5408 108.353 66.897 105.628 65.1678 103.657" stroke="#A15842" stroke-width="8" stroke-miterlimit="10" stroke-linecap="round"/>
<path d="M106.071 67.309L57.5903 49.0876C54.2802 47.8435 52.6162 44.18 53.8736 40.9049L67.1963 6.20334C68.4536 2.92826 72.1563 1.28181 75.4663 2.5259L123.947 20.7474C127.257 21.9914 128.921 25.655 127.664 28.93L114.341 63.6316C113.084 66.9067 109.381 68.5531 106.071 67.309Z" fill="#30242A"/>
<path d="M48.8682 151.034C48.332 152.431 46.7531 153.133 45.3415 152.603C43.93 152.072 43.2204 150.51 43.7566 149.113L79.1082 57.0331C79.6444 55.6364 81.2233 54.9343 82.6349 55.4649C84.0464 55.9954 84.756 57.5577 84.2198 58.9543L48.8682 151.034Z" fill="#30242A"/>
<path d="M85.0372 24.1506C86.6082 23.484 88.3822 23.4614 89.97 24.0878C91.5577 24.7141 92.8294 25.9382 93.5058 27.4914L94.2508 29.2091L95.9869 28.4686C97.552 27.8264 99.3096 27.8198 100.88 28.4501C102.449 29.0805 103.705 30.2971 104.376 31.8367C105.046 33.3763 105.076 35.1151 104.461 36.6769C103.845 38.2387 102.633 39.4978 101.086 40.1817L99.3498 40.9223L87.5149 45.9673L82.4126 34.2542L81.6676 32.5398C81.3308 31.7702 81.1508 30.9424 81.138 30.1039C81.1251 29.2654 81.2797 28.4326 81.5927 27.6532C81.9057 26.8739 82.3711 26.1633 82.9622 25.5623C83.5533 24.9612 84.2584 24.4815 85.0372 24.1506Z" fill="#FFB494"/>
<path d="M55.6944 97.5266C52.5127 99.4168 53.1962 103.079 53.1962 103.079C53.1962 103.079 46.7952 102.21 46.9832 108.685C46.9832 108.685 41.8808 111.005 44.2218 116.053C44.2218 116.053 40.712 116.959 42.4652 122.508C44.174 127.919 47.6701 131.33 49.9837 131.638C51.2072 131.8 54.0848 130.624 53.743 126.228C53.743 126.228 56.8188 127.919 58.8693 126.228C61.5623 124.006 60.578 120.818 60.578 120.818C60.578 120.818 63.6538 121.832 65.0208 119.465C66.504 116.899 64.679 113.379 64.679 113.379C64.679 113.379 67.1362 113.717 67.7548 111.35C69.0671 106.355 63.623 102.115 62.2868 100.867L63.312 98.1624C63.312 98.1624 58.8693 95.6398 55.6944 97.5266Z" fill="#EAA58B"/>
<path d="M65.8718 114.599C61.9929 112.34 56.1148 108.175 52.8135 103.19" stroke="#A15842" stroke-width="4" stroke-miterlimit="10" stroke-linecap="round"/>
<path d="M61.3675 121.64C55.7336 118.41 50.7721 114.149 46.7474 109.084" stroke="#A15842" stroke-width="4" stroke-miterlimit="10" stroke-linecap="round"/>
<path d="M53.5347 126.658C50.8007 124.629 47.0414 120.909 43.8699 116.632" stroke="#A15842" stroke-width="4" stroke-miterlimit="10" stroke-linecap="round"/>
</svg>
