<svg width="228" height="256" viewBox="0 0 228 256" fill="none" xmlns="http://www.w3.org/2000/svg">
<path d="M210.868 12.7323C215.038 12.7323 219.038 14.3889 221.986 17.3378C224.935 20.2867 226.592 24.2863 226.592 28.4566V177.59C226.592 181.76 224.935 185.76 221.986 188.709C219.038 191.658 215.038 193.314 210.868 193.314H17.3808C13.2104 193.314 9.21089 191.658 6.262 188.709C3.31311 185.76 1.65643 181.76 1.65643 177.59V28.4566C1.65643 24.2863 3.31311 20.2867 6.262 17.3378C9.21089 14.3889 13.2104 12.7323 17.3808 12.7323H210.868ZM210.868 11.3242H17.3808C12.8384 11.3289 8.48343 13.1354 5.27149 16.3473C2.05955 19.5593 0.253042 23.9143 0.248383 28.4566V177.59C0.253042 182.132 2.05955 186.487 5.27149 189.699C8.48343 192.911 12.8384 194.718 17.3808 194.722H210.868C215.41 194.718 219.765 192.911 222.977 189.699C226.189 186.487 227.995 182.132 228 177.59V28.4566C227.995 23.9143 226.189 19.5593 222.977 16.3473C219.765 13.1354 215.41 11.3289 210.868 11.3242Z" fill="white"/>
<path d="M210.868 12.7319H17.3808C8.69647 12.7319 1.65643 19.772 1.65643 28.4563V177.59C1.65643 186.274 8.69647 193.314 17.3808 193.314H210.868C219.552 193.314 226.592 186.274 226.592 177.59V28.4563C226.592 19.772 219.552 12.7319 210.868 12.7319Z" fill="#F5EBDD"/>
<path d="M196.671 112.704C196.671 112.704 212.512 94.0472 194.911 78.2067C184.153 68.5264 171.231 71.2228 171.231 71.2228C171.72 65.3301 172.703 50.1021 159.935 40.7738C147.168 31.4454 130.957 36.356 125.065 43.7201C119.172 51.0842 120.647 64.8408 118.683 74.6619C116.719 84.4831 118.19 90.8545 124.083 94.3077C129.975 97.7609 136.854 95.2898 136.854 95.2898L135.379 104.129C135.379 104.129 123.805 105.664 114.3 109.888C103.529 114.675 79.4511 127.84 79.4511 127.84C78.7471 125.376 74.8749 85.2469 73.1149 72.2225C71.7737 62.2993 67.1307 50.0457 63.6105 52.5098C60.196 54.9 61.4985 62.7182 61.4985 62.7182L43.5459 81.3748C43.5459 81.3748 34.6717 145.346 55.8663 162.69C71.3548 175.362 111.836 154.945 111.836 154.945L106.556 193.315H154.859C154.859 193.315 145.802 195.722 126.973 204.227C105.148 214.083 92.4755 241.54 93.8836 243.652C95.2916 245.764 99.5158 244.004 105.148 236.964C100.22 255.269 105.148 253.861 108.316 253.509C111.537 258.141 115.708 252.453 115.708 252.453C115.708 252.453 121.34 257.733 130.141 233.092C134.139 231.207 137.82 228.713 141.053 225.7C141.053 225.7 197.023 222.18 207.935 202.467C218.848 182.754 211.455 131.36 196.671 112.704Z" fill="#A15842"/>
<path d="M123.505 70.2156C124.312 70.2156 124.966 69.5616 124.966 68.7548C124.966 67.948 124.312 67.2939 123.505 67.2939C122.698 67.2939 122.044 67.948 122.044 68.7548C122.044 69.5616 122.698 70.2156 123.505 70.2156Z" fill="#30242A"/>
<path d="M144.971 210.511L145.876 212.535L151.297 224.683C167.982 222.62 199.969 216.861 207.935 202.467C218.848 182.754 211.456 131.361 196.671 112.704C184.351 126.253 165.3 122.56 157.661 111.296C156.253 111.646 154.819 111.881 153.374 112C151.119 112.208 148.846 112.119 146.615 111.733C143.941 111.286 141.409 110.219 139.223 108.617C136.438 106.523 135.421 104.256 135.421 104.256L134.949 104.189C132.788 104.509 122.731 106.139 114.3 109.888C103.529 114.675 79.4511 127.841 79.4511 127.841C79.1343 126.735 78.1803 118.03 77.0644 107.6L63.3923 112.88L61.9103 113.454L54.8384 116.193L41.9794 121.17C42.9017 137.743 46.362 154.91 55.8663 162.69C71.3548 175.362 111.836 154.946 111.836 154.946L106.556 193.315H154.859C154.859 193.315 149.906 194.635 139.723 198.753L142.067 204.002L144.971 210.511Z" fill="#FFB494"/>
<path d="M78.395 147.201C74.1005 147.201 69.9818 148.907 66.9451 151.943C63.9084 154.98 62.2025 159.099 62.2025 163.393C62.2026 164.235 62.2673 165.075 62.3961 165.907C71.6258 168.371 84.3123 165.477 94.5277 162.034C94.1871 157.99 92.34 154.221 89.3522 151.474C86.3644 148.726 82.4538 147.201 78.395 147.201Z" fill="#FF7235"/>
<path d="M62.5545 117.984C62.5538 116.454 62.3369 114.933 61.9103 113.464L54.8384 116.203L41.9794 121.18C42.2152 125.429 42.6201 129.716 43.2502 133.874C45.5958 134.333 48.014 134.267 50.3312 133.681C52.6484 133.095 54.8072 132.004 56.6526 130.485C58.498 128.966 59.9843 127.057 61.0047 124.896C62.0251 122.734 62.5544 120.374 62.5545 117.984Z" fill="#FF7235"/>
<path d="M109.372 129.248C112.07 129.247 114.725 128.572 117.096 127.283C119.466 125.995 121.478 124.135 122.946 121.872C124.415 119.608 125.295 117.014 125.507 114.324C125.718 111.634 125.254 108.935 124.157 106.47C120.79 107.359 117.495 108.502 114.3 109.888C109.344 112.091 101.568 116.069 94.6158 119.723C95.8984 122.562 97.9729 124.971 100.59 126.66C103.208 128.35 106.257 129.248 109.372 129.248Z" fill="#FF7235"/>
<path d="M148.797 166.21C157.74 166.21 164.99 158.96 164.99 150.017C164.99 141.074 157.74 133.825 148.797 133.825C139.855 133.825 132.605 141.074 132.605 150.017C132.605 158.96 139.855 166.21 148.797 166.21Z" fill="#FF7235"/>
<path d="M117.116 175.714C114.133 175.713 111.209 176.541 108.668 178.104L106.556 193.314H133.242C133.284 192.85 133.309 192.382 133.309 191.906C133.309 187.612 131.603 183.493 128.566 180.457C125.529 177.42 121.411 175.714 117.116 175.714Z" fill="#FF7235"/>
<path d="M175.226 121.286C175.226 121.592 175.198 121.898 175.198 122.208C175.2 125.8 176.395 129.289 178.597 132.127C180.798 134.965 183.881 136.99 187.36 137.885C190.838 138.779 194.516 138.491 197.813 137.066C201.11 135.642 203.84 133.161 205.573 130.016C203.085 123.035 200.075 116.991 196.671 112.704C190.458 119.536 182.534 121.983 175.226 121.286Z" fill="#FF7235"/>
<path d="M190.335 189.794C190.336 193.896 191.893 197.844 194.692 200.841C197.491 203.839 201.323 205.663 205.415 205.945C206.387 204.887 207.232 203.72 207.935 202.467C211.526 195.983 213.135 186.067 213.149 175.01C210.682 173.905 207.978 173.435 205.284 173.642C202.589 173.85 199.989 174.728 197.721 176.198C195.453 177.668 193.589 179.682 192.299 182.057C191.009 184.432 190.333 187.092 190.335 189.794Z" fill="#FF7235"/>
<path d="M156.19 205.986C152.005 205.982 147.982 207.604 144.971 210.51L145.876 212.534L151.297 224.682C158.367 223.823 165.389 222.608 172.336 221.042C172.049 216.955 170.223 213.13 167.227 210.336C164.23 207.542 160.286 205.988 156.19 205.986Z" fill="#FF7235"/>
<path d="M183.471 183.282C174.008 186.507 161.248 190.428 153.374 192.963" stroke="#F5EBDC" stroke-width="4" stroke-miterlimit="10" stroke-linecap="round"/>
<path d="M173.442 149.066L176.782 185.394" stroke="#F5EBDC" stroke-width="4" stroke-miterlimit="10" stroke-linecap="round"/>
<path d="M104.201 237.886C105.356 234.32 107.816 226.995 109.978 222.31" stroke="#30242A" stroke-width="4" stroke-miterlimit="10" stroke-linecap="round"/>
<path d="M116.852 225.256C111.945 235.816 109.066 247.855 107.999 252.847" stroke="#30242A" stroke-width="4" stroke-miterlimit="10" stroke-linecap="round"/>
<path d="M123.727 228.691C120.559 235.999 117.785 245.975 116.229 252.114" stroke="#30242A" stroke-width="4" stroke-miterlimit="10" stroke-linecap="round"/>
<path d="M112.973 142.431L111.058 155.209" stroke="#F5EBDC" stroke-width="4" stroke-miterlimit="10" stroke-linecap="round"/>
<path d="M194.911 78.2067C184.153 68.5264 171.231 71.2228 171.231 71.2228C171.72 65.3301 172.702 50.1021 159.935 40.7738C147.168 31.4454 130.957 36.356 125.065 43.7201C122.664 46.7228 121.485 50.7885 120.798 55.2133C124.72 55.8751 130.468 54.5269 130.468 54.5269C138.325 63.3659 146.661 65.3301 146.661 65.3301C152.064 59.4374 161.885 59.4374 163.36 67.7942C164.99 77.0345 153.535 79.5795 153.535 79.5795C153.535 79.5795 151.107 92.7483 155.119 106.023C155.691 107.9 156.543 109.68 157.647 111.303C165.286 122.567 184.34 126.263 196.657 112.711C197.266 111.961 197.832 111.175 198.35 110.359C201.916 104.85 208.749 90.6609 194.911 78.2067Z" fill="#30242A"/>
<path d="M136.801 95.9132C139.077 95.2466 141.271 94.3255 143.341 93.1675" stroke="#30242A" stroke-width="4" stroke-miterlimit="10" stroke-linecap="round"/>
<path d="M171.777 71.1206C171.509 73.8065 171.15 77.1506 170.798 79.7907" stroke="black" stroke-width="4" stroke-miterlimit="10" stroke-linecap="round"/>
<path d="M152.099 71.6766L156.482 69.2407" stroke="#30242A" stroke-width="4" stroke-miterlimit="10" stroke-linecap="round"/>
<path d="M127.191 83.1024C127.997 83.6058 131.014 83.9965 132.239 81.6768" stroke="#30242A" stroke-width="4" stroke-miterlimit="10" stroke-linecap="round"/>
<path d="M135.125 72.1522C135.932 72.1522 136.586 71.4981 136.586 70.6913C136.586 69.8845 135.932 69.2305 135.125 69.2305C134.318 69.2305 133.664 69.8845 133.664 70.6913C133.664 71.4981 134.318 72.1522 135.125 72.1522Z" fill="#30242A"/>
<path d="M127.011 74.2505C126.786 75.222 126.6 76.2816 126.754 76.6442C126.965 77.0812 127.317 77.4337 127.754 77.6439" stroke="#30242A" stroke-width="4" stroke-miterlimit="10" stroke-linecap="round"/>
<path d="M126.431 70.1207C127.309 66.3329 125.257 62.6217 121.848 61.8316C118.439 61.0414 114.964 63.4715 114.086 67.2593C113.208 71.0471 115.26 74.7582 118.669 75.5484C122.078 76.3386 125.553 73.9085 126.431 70.1207Z" stroke="black" stroke-width="4" stroke-miterlimit="10" stroke-linecap="round"/>
<path d="M141.921 72.5831C142.799 68.7953 140.747 65.0842 137.338 64.294C133.929 63.5038 130.454 65.9339 129.576 69.7217C128.698 73.5095 130.75 77.2206 134.159 78.0108C137.568 78.801 141.043 76.3709 141.921 72.5831Z" stroke="black" stroke-width="4" stroke-miterlimit="10" stroke-linecap="round"/>
<path d="M126.797 69.582L129.261 69.934" stroke="black" stroke-width="4" stroke-miterlimit="10" stroke-linecap="round"/>
<path d="M57.0983 64.6538C57.0983 64.6538 63.7865 70.286 64.4905 71.694C64.4905 71.694 53.5782 82.9584 62.0265 96.6869" stroke="#30242A" stroke-width="4" stroke-miterlimit="10" stroke-linecap="round"/>
<path d="M92.9421 28.1881C93.7509 26.8661 93.3348 25.1388 92.0128 24.3301C90.6908 23.5213 88.9635 23.9374 88.1547 25.2594L34.8334 112.419C34.0247 113.741 34.4407 115.469 35.7627 116.277C37.0847 117.086 38.812 116.67 39.6208 115.348L92.9421 28.1881Z" fill="#30242A"/>
<path d="M97.7873 5.54064L103.849 0.689913C104.343 0.293246 104.947 0.0577781 105.58 0.0152753C106.212 -0.0272275 106.842 0.125281 107.385 0.452228C107.928 0.779176 108.358 1.26483 108.616 1.84364C108.875 2.42244 108.949 3.06656 108.83 3.68905L107.376 11.3242C107.262 11.9257 107.328 12.5477 107.566 13.1115C107.805 13.6754 108.206 14.1559 108.717 14.4923L115.201 18.7587C115.731 19.1063 116.142 19.6081 116.378 20.1964C116.614 20.7846 116.663 21.4311 116.52 22.0485C116.377 22.666 116.048 23.2246 115.577 23.6491C115.107 24.0737 114.517 24.3436 113.888 24.4226L106.204 25.4047C105.596 25.4816 105.024 25.737 104.561 26.1386C104.098 26.5402 103.765 27.07 103.603 27.6611L101.55 35.1448C101.382 35.7553 101.031 36.2997 100.544 36.7047C100.057 37.1097 99.4581 37.356 98.8272 37.4104C98.1962 37.4649 97.5638 37.3248 97.0148 37.0092C96.4658 36.6935 96.0266 36.2173 95.7562 35.6447L92.4508 28.6044C92.1876 28.0528 91.7671 27.5913 91.2422 27.2781C90.7173 26.9649 90.1115 26.814 89.501 26.8444L81.7567 27.1964C81.1195 27.2363 80.4855 27.0783 79.9416 26.7441C79.3976 26.4099 78.9702 25.9157 78.7178 25.3293C78.4654 24.7428 78.4004 24.0927 78.5317 23.4679C78.6629 22.8431 78.984 22.2741 79.451 21.8388L85.1079 16.5234C85.5545 16.1037 85.8668 15.561 86.0053 14.964C86.1437 14.3669 86.1022 13.7422 85.8858 13.1687L83.1472 5.90673C82.9224 5.31301 82.8853 4.66462 83.0409 4.04914C83.1964 3.43367 83.5371 2.88074 84.0169 2.46505C84.4967 2.04935 85.0925 1.79092 85.7238 1.72465C86.3552 1.65837 86.9917 1.78744 87.5473 2.09444L94.3517 5.83633C94.8895 6.13215 95.5028 6.26194 96.1143 6.20931C96.7258 6.15668 97.308 5.92399 97.7873 5.54064Z" fill="#3EC1F3"/>
<path d="M61.4985 62.7177C59.0344 60.6056 54.2998 59.2363 51.9941 60.6056C48.1009 62.9183 49.0584 67.41 49.0584 67.41C49.0584 67.41 42.7222 66.4244 42.7996 72.9155C42.7996 72.9155 37.6989 75.1472 39.9307 80.2479C39.9307 80.2479 35.5165 81.3637 37.6145 86.7988C39.3217 91.2306 43.2607 93.5504 45.6579 94.7507C47.77 95.8068 51.0085 94.2826 49.8821 90.1746C49.8821 90.1746 52.3462 90.8786 53.7542 89.4706C55.6973 87.5275 54.8102 83.8384 54.8102 83.8384C54.8102 83.8384 57.2743 84.5424 59.0344 83.1344C61.1817 81.4165 60.0904 78.2062 60.0904 78.2062C60.8774 78.1001 61.6206 77.7819 62.2407 77.2859C62.8607 76.7899 63.3342 76.1345 63.6105 75.3901C65.0186 71.87 59.7384 67.6458 59.7384 67.6458L61.4985 62.7177Z" fill="#A15842"/>
<path d="M39.6737 80.4487C42.7725 84.2105 46.1878 87.6999 49.882 90.8788" stroke="#30242A" stroke-width="4" stroke-miterlimit="10" stroke-linecap="round"/>
<path d="M42.8418 72.8838C46.4717 77.3219 50.6144 81.3146 55.1834 84.7783" stroke="#30242A" stroke-width="4" stroke-miterlimit="10" stroke-linecap="round"/>
<path d="M48.474 67.7061C51.8005 72.0768 55.804 75.8879 60.3333 78.9951" stroke="#30242A" stroke-width="4" stroke-miterlimit="10" stroke-linecap="round"/>
<path d="M57.0983 64.6538C57.0983 64.6538 60.3967 67.4312 62.6038 69.582" stroke="#30242A" stroke-width="4" stroke-miterlimit="10" stroke-linecap="round"/>
<path d="M139.803 33.0503L137.945 35.0955L136.709 36.4542C135.924 39.1999 141.637 43.5754 149.582 46.2859C157.527 48.9964 164.719 49.0211 165.775 46.3669L165.627 44.5364L165.405 41.7802C162.42 42.4842 157.249 41.9175 151.709 40.0201C146.168 38.1228 141.729 35.444 139.803 33.0503Z" fill="#FFBE21"/>
<path d="M153.856 33.7612C149.702 32.3531 146.161 30.4734 143.838 28.6147L139.803 33.0501C141.729 35.4438 146.178 38.1402 151.716 40.0305C157.253 41.9208 162.427 42.4946 165.412 41.7905L164.93 35.8063C161.956 35.8592 158.01 35.1762 153.856 33.7612Z" fill="#FF7235"/>
<path d="M148.153 23.8696L143.838 28.6147C146.161 30.4734 149.702 32.3461 153.856 33.7612C158.01 35.1763 161.952 35.8732 164.93 35.8099L164.413 29.4138C158.666 28.7196 153.127 26.8311 148.153 23.8696Z" fill="#FFBE21"/>
<path d="M158.133 21.223C156.253 20.5873 154.42 19.8192 152.648 18.9243L148.153 23.8525C153.127 26.814 158.666 28.7025 164.413 29.3967L163.874 22.7366C161.927 22.3665 160.009 21.8607 158.133 21.223Z" fill="#FF7235"/>
<path d="M163.874 22.7543L162.674 7.89941L152.648 18.9244C154.42 19.8193 156.253 20.5874 158.133 21.2231C160.008 21.8667 161.927 22.3784 163.874 22.7543Z" fill="#FFBE21"/>
<path d="M163.518 10.842C166.512 10.842 168.939 8.41491 168.939 5.42098C168.939 2.42705 166.512 0 163.518 0C160.525 0 158.098 2.42705 158.098 5.42098C158.098 8.41491 160.525 10.842 163.518 10.842Z" fill="#FF7235"/>
</svg>
