<svg width="301" height="238" viewBox="0 0 301 238" fill="none" xmlns="http://www.w3.org/2000/svg">
<path d="M229.685 17.0399C233.855 17.0399 237.855 18.6965 240.804 21.6454C243.753 24.5943 245.409 28.5939 245.409 32.7642V181.898C245.409 186.068 243.753 190.067 240.804 193.016C237.855 195.965 233.855 197.622 229.685 197.622H36.1982C32.0278 197.622 28.0282 195.965 25.0794 193.016C22.1305 190.067 20.4738 186.068 20.4738 181.898V32.7642C20.4738 28.5939 22.1305 24.5943 25.0794 21.6454C28.0282 18.6965 32.0278 17.0399 36.1982 17.0399H229.685ZM229.685 15.6318H36.1982C31.6558 15.6365 27.3008 17.443 24.0889 20.655C20.8769 23.8669 19.0704 28.2219 19.0658 32.7642V181.898C19.0704 186.44 20.8769 190.795 24.0889 194.007C27.3008 197.219 31.6558 199.025 36.1982 199.03H229.685C234.227 199.025 238.582 197.219 241.794 194.007C245.006 190.795 246.813 186.44 246.817 181.898V32.7642C246.813 28.2219 245.006 23.8669 241.794 20.655C238.582 17.443 234.227 15.6365 229.685 15.6318Z" fill="white"/>
<path d="M229.685 17.04H36.1982C27.5138 17.04 20.4738 24.0801 20.4738 32.7644V181.898C20.4738 190.582 27.5138 197.622 36.1982 197.622H229.685C238.369 197.622 245.409 190.582 245.409 181.898V32.7644C245.409 24.0801 238.369 17.04 229.685 17.04Z" fill="#F5EBDD"/>
<path d="M186.423 27.8118C186.423 27.6675 186.423 27.4598 186.423 27.2451L186.592 27.1184L186.426 27.0832C186.426 24.0559 186.169 15.0655 183.23 8.21533C180.618 2.12905 177.013 -0.68352 174.511 0.390116C172.008 1.46375 171.561 6.0223 174.159 12.098C175.609 15.4844 177.893 18.7546 180.094 21.451C175.662 17.2515 169.611 12.0452 164.147 9.17985C156.755 5.30772 151.007 5.42388 149.412 8.45822C147.818 11.4926 150.996 16.2975 158.381 20.1732C163.186 22.6971 169.748 24.5663 175.324 25.837C172.335 25.7342 169.344 25.9871 166.414 26.5904C159.951 28.0406 156.53 31.0715 157.125 33.7256C157.72 36.3798 162.109 37.6576 168.572 36.2073C175.771 34.5916 183.128 29.6247 185.659 27.7977L186.106 27.8646C186.289 28.0371 186.398 28.1322 186.398 28.1322C186.398 28.1322 186.398 28.0512 186.398 27.9069H186.504L186.423 27.8118Z" fill="#3EC1F3"/>
<path d="M257.494 59.8195L257.385 59.7139V59.9321L257.494 59.8195Z" fill="#3EC1F3"/>
<path d="M249.056 68.3455L248.968 51.382L240.309 42.8105L240.481 77.005L249.056 68.3455Z" fill="#3EC1F3"/>
<path d="M189.235 21.6654L189.524 78.7229L198.183 87.2944L197.807 13.0059L189.235 21.6654Z" fill="#3EC1F3"/>
<path d="M160.853 50.3403L181.107 70.3909L180.903 30.082L160.853 50.3403Z" fill="#3EC1F3"/>
<path d="M232.153 85.4183L231.896 34.4822L223.233 25.9072L223.578 94.0813L232.153 85.4183Z" fill="#3EC1F3"/>
<path d="M214.82 17.5788L206.16 9.00732L206.597 95.6269L214.401 103.35L215.249 102.495L214.82 17.5788Z" fill="#3EC1F3"/>
<path d="M180.903 30.0821L181.107 70.391L189.524 78.7231L189.235 21.6655L180.903 30.0821Z" fill="#4756DF"/>
<path d="M203.942 6.81055L197.807 13.006L198.183 87.2945L206.597 95.6266L206.16 9.0071L203.942 6.81055Z" fill="#4756DF"/>
<path d="M223.578 94.0813L223.233 25.9072L214.819 17.5786L215.249 102.494L223.578 94.0813Z" fill="#4756DF"/>
<path d="M240.481 77.005L240.309 42.8105L231.896 34.4819L232.153 85.418L240.481 77.005Z" fill="#4756DF"/>
<path d="M257.385 59.9322V59.7139L248.968 51.3818L249.056 68.3453L257.385 59.9322Z" fill="#4756DF"/>
<path d="M217.301 20.2148L174.289 63.6637" stroke="black" stroke-width="4" stroke-linejoin="round"/>
<path d="M206.171 4.55926L158.62 52.5938L171.536 65.3798L219.087 17.3453L206.171 4.55926Z" fill="#4756DF"/>
<path d="M193.312 82.1618C193.312 82.1618 197.888 67.0253 195.072 64.5612C191.671 61.5867 185.919 71.2494 181.283 82.8658C176.408 95.0701 162.275 129.683 161.571 132.147C161.571 132.147 137.49 118.982 126.722 114.195C117.217 109.971 105.64 108.436 105.64 108.436L104.168 99.597C104.168 99.597 111.043 102.061 116.936 98.6148C122.828 95.1686 124.303 88.7902 122.339 78.9691C121.174 73.1503 121.216 65.9446 120.227 59.5204C116.305 60.1822 110.561 58.834 110.561 58.834C102.7 67.673 94.3681 69.6372 94.3681 69.6372C88.9647 63.7445 79.1401 63.7445 77.6687 72.1013C76.0389 81.3416 87.4898 83.8867 87.4898 83.8867C87.4898 83.8867 89.8201 97.2983 84.892 110.675C78.0453 129.261 50.4441 134.193 39.1304 126.163C18.7138 140.596 36.7755 184.446 53.9149 205.014C67.9954 221.91 117.981 213.11 117.981 213.11C117.981 213.11 123.613 217.334 130.301 218.742C142.27 242.327 147.198 235.639 147.198 235.639C147.198 235.639 151.422 240.215 154.59 235.287C160.927 235.639 160.574 231.767 154.942 218.39C161.279 226.135 167.481 226.159 167.615 224.023C167.967 218.39 149.31 198.678 137.694 193.75C128.967 190.046 124.669 188.821 124.669 188.821L122.909 160.308C122.909 160.308 160.265 180.824 177.823 171.221C200.352 158.9 209.504 98.3544 209.504 98.3544L193.312 82.1618Z" fill="#EAA58B"/>
<path d="M84.892 110.675C89.8202 97.2986 87.4687 83.8799 87.4687 83.8799C87.4687 83.8799 76.0178 81.3349 77.6476 72.0945C79.119 63.7448 88.9436 63.7448 94.347 69.6305C94.347 69.6305 102.693 67.6662 110.54 58.8272C110.54 58.8272 116.284 60.1754 120.206 59.5136C119.519 55.0888 118.344 51.0231 115.939 48.0205C110.047 40.6564 93.8401 35.7423 81.0727 45.0741C68.3052 54.4059 69.2838 69.6305 69.7766 75.5231C69.7766 75.5231 47.6949 70.1162 35.9483 86.7312C21.5158 107.148 39.1164 126.157 39.1164 126.157C50.4441 134.193 78.0454 129.261 84.892 110.675Z" fill="#30242A"/>
<path d="M123.525 170.295L122.909 160.309H122.941L119.995 111.675C116.744 110.67 113.442 109.839 110.103 109.186L108.477 142.708H81.0199L70.5897 125.759C66.8669 127.596 62.8797 128.839 58.7727 129.444L74.4584 168.32L80.3158 182.837C80.3158 182.837 93.6923 183.541 105.661 185.302C117.629 187.062 124.669 188.822 124.669 188.822L123.525 170.295Z" fill="#FF7235"/>
<path d="M193.836 83.0347C193.547 83.9534 193.252 84.8475 192.96 85.6818C192.96 85.6818 201.936 96.0662 196.304 109.443" stroke="#BB7259" stroke-width="4" stroke-miterlimit="10" stroke-linecap="round"/>
<path d="M160.747 131.834L157.054 141.3" stroke="#BB7259" stroke-width="4" stroke-miterlimit="10" stroke-linecap="round"/>
<path d="M156.35 220.031C154.861 216.655 153.02 212.705 151.394 209.822" stroke="#BB7259" stroke-width="4" stroke-miterlimit="10" stroke-linecap="round"/>
<path d="M144.787 213.332C149.011 220.77 152.323 229.099 154.4 234.949" stroke="#BB7259" stroke-width="4" stroke-miterlimit="10" stroke-linecap="round"/>
<path d="M138.218 217.5C141.386 223.315 144.47 230.091 146.758 235.417" stroke="#BB7259" stroke-width="4" stroke-miterlimit="10" stroke-linecap="round"/>
<path d="M124.141 174.565L77.3237 174.213" stroke="#724342" stroke-width="4" stroke-miterlimit="10" stroke-linecap="round"/>
<path d="M63.1306 196.794C60.846 196.019 58.3992 195.85 56.0297 196.304C53.6602 196.758 51.4493 197.82 49.6133 199.385C51.039 201.402 52.4787 203.293 53.9149 205.017C57.8082 209.689 64.4436 212.41 72.0083 213.864C73.9268 206.69 70.1075 199.195 63.1306 196.794Z" fill="#CA7358"/>
<path d="M177.823 171.221C180.882 169.549 183.691 166.997 186.271 163.808C184.601 161.296 182.151 159.405 179.298 158.426C171.994 155.916 163.993 159.929 161.426 167.388C160.758 169.333 160.509 171.398 160.698 173.446C167.087 174.199 173.155 173.773 177.823 171.221Z" fill="#CA7358"/>
<path d="M58.7692 129.444C51.1869 130.574 43.7805 129.465 39.1305 126.164C24.2932 136.654 29.7775 162.674 40.4611 184.01L74.4584 168.321L58.7692 129.444Z" fill="#FFBE21"/>
<path d="M84.892 110.675C82.3504 117.571 76.9506 122.587 70.5897 125.759L81.0198 142.708H108.477L110.103 109.204C107.4 108.672 105.64 108.436 105.64 108.436L104.957 104.339H86.7295C86.2633 106.491 85.6493 108.608 84.892 110.675Z" fill="#FFBE21"/>
<path d="M126.718 114.195C124.526 113.235 122.281 112.4 119.995 111.692L122.941 160.326C127.617 162.802 132.425 165.022 137.342 166.976L151.774 126.868C143.861 122.643 133.016 117.011 126.718 114.195Z" fill="#FFBE21"/>
<path d="M34.1935 144.136C43.6219 138.692 47.4323 127.64 42.7043 119.451C37.9762 111.262 26.5001 109.036 17.0717 114.48C7.64325 119.923 3.83286 130.975 8.56093 139.164C13.289 147.353 24.7651 149.579 34.1935 144.136Z" fill="#30242A"/>
<path d="M30.5061 110.146C30.5061 110.146 32.9702 124.931 44.9386 129.507" stroke="black" stroke-width="4" stroke-linecap="round" stroke-linejoin="round"/>
<path d="M296.627 23.2002L298.035 33.7605" stroke="#F5EBDC" stroke-width="4" stroke-miterlimit="10" stroke-linecap="round"/>
<path d="M80.1398 182.31L72.0435 181.958" stroke="#BB7259" stroke-width="4" stroke-miterlimit="10" stroke-linecap="round"/>
<path d="M104.045 100.421C101.918 99.6909 99.854 98.788 97.8741 97.7212" stroke="#BB7259" stroke-width="4" stroke-miterlimit="10" stroke-linecap="round"/>
<path d="M69.2415 75.4282C69.509 78.1141 69.8716 81.4582 70.2236 84.0983" stroke="black" stroke-width="4" stroke-linecap="round" stroke-linejoin="round"/>
<path d="M102.302 174.185C102.302 174.185 94.1463 162.642 97.934 161.125C100.993 159.9 101.866 168.88 102.302 174.185Z" stroke="#724342" stroke-width="4" stroke-linecap="round" stroke-linejoin="round"/>
<path d="M102.559 174.389C102.559 174.389 106.569 165.131 109.086 166.613C111.117 167.81 105.759 171.971 102.559 174.389Z" stroke="#724342" stroke-width="4" stroke-linecap="round" stroke-linejoin="round"/>
<path d="M106.442 108.683L107.069 112.435" stroke="#BB7259" stroke-width="4" stroke-miterlimit="10" stroke-linecap="round"/>
<path d="M88.919 75.9843L84.5364 73.5483" stroke="#BB7259" stroke-width="4" stroke-miterlimit="10" stroke-linecap="round"/>
<path d="M109.839 84.2212C110.089 88.8396 114.834 89.2233 115.996 85.9813L109.839 84.2212Z" stroke="#BB7259" stroke-width="4" stroke-linecap="round" stroke-linejoin="round"/>
<path d="M107.005 76.1072C107.812 76.1072 108.466 75.4532 108.466 74.6464C108.466 73.8396 107.812 73.1855 107.005 73.1855C106.199 73.1855 105.544 73.8396 105.544 74.6464C105.544 75.4532 106.199 76.1072 107.005 76.1072Z" fill="#724342"/>
<path d="M117.868 73.4671C118.675 73.4671 119.329 72.8131 119.329 72.0063C119.329 71.1995 118.675 70.5454 117.868 70.5454C117.062 70.5454 116.408 71.1995 116.408 72.0063C116.408 72.8131 117.062 73.4671 117.868 73.4671Z" fill="#724342"/>
<path d="M114.13 76.4316C114.482 77.3645 114.813 78.3888 114.707 78.7725C114.558 79.2331 114.256 79.6291 113.852 79.8954" stroke="#BB7259" stroke-width="4" stroke-miterlimit="10" stroke-linecap="round"/>
<path d="M101.215 37.3579L103.077 39.4031L104.309 40.7619C105.094 43.5076 99.3808 47.8831 91.4394 50.5936C83.498 53.3041 76.3029 53.3287 75.2468 50.6745L75.3947 48.8441L75.62 46.0878C78.6015 46.7918 83.7761 46.2251 89.3132 44.3278C94.8504 42.4304 99.2927 39.7516 101.215 37.3579Z" fill="#FFB494"/>
<path d="M87.1659 38.0688C91.3197 36.6607 94.8609 34.781 97.1842 32.9224L101.215 37.3577C99.2928 39.7514 94.8433 42.4478 89.3027 44.3381C83.762 46.2284 78.5909 46.8022 75.6094 46.0982L76.0917 40.114C79.0662 40.1668 83.0122 39.4839 87.1659 38.0688Z" fill="#FF7235"/>
<path d="M92.8685 28.1777L97.1842 32.9228C94.8609 34.7815 91.3197 36.6542 87.1659 38.0693C83.0122 39.4843 79.0697 40.1813 76.0916 40.118L76.6056 33.7219C82.3537 33.0275 87.8932 31.1391 92.8685 28.1777Z" fill="#FFB494"/>
<path d="M82.889 25.5301C84.768 24.8945 86.5996 24.1263 88.3699 23.2314L92.8686 28.1772C87.8932 31.1385 82.3538 33.027 76.6056 33.7214L77.1477 27.0613C79.0949 26.6857 81.0134 26.1741 82.889 25.5301Z" fill="#FF7235"/>
<path d="M77.1477 27.0619L78.3481 12.207L88.3734 23.232C86.6031 24.1269 84.7716 24.8951 82.8925 25.5307C81.0158 26.1748 79.0961 26.6865 77.1477 27.0619Z" fill="#FFB494"/>
<path d="M77.4997 15.1496C80.4936 15.1496 82.9207 12.7225 82.9207 9.72861C82.9207 6.73468 80.4936 4.30762 77.4997 4.30762C74.5058 4.30762 72.0787 6.73468 72.0787 9.72861C72.0787 12.7225 74.5058 15.1496 77.4997 15.1496Z" fill="#FF7235"/>
<path d="M86.124 89.9058C88.5541 89.9058 90.5241 87.9358 90.5241 85.5056C90.5241 83.0755 88.5541 81.1055 86.124 81.1055C83.6939 81.1055 81.7238 83.0755 81.7238 85.5056C81.7238 87.9358 83.6939 89.9058 86.124 89.9058Z" fill="#F4E6D8"/>
</svg>
